<svg xmlns="http://www.w3.org/2000/svg" width="500" viewBox="0 0 375 375" height="500" version="1.0"><defs><clipPath id="a"><path d="M64.777 169.016h247.98v28.879H64.778zm0 0"/></clipPath></defs><path fill="none" d="M187.922 267.05l.422-174.269" stroke="#000" stroke-width=".846"/><path d="M66.837 128.913v1.04c8.93 0 9.551 7.374 9.551 27.831v46.106c0 20.46-.62 27.832-9.55 27.832v1.039h28.035v-1.04c-8.93 0-17.446-7.476-17.446-37.694v-13.188l.106-44.55c15.785 33.85 25.129 54 41.433 88.89h.934c12.773-34.27 23.262-62.824 34.476-92.836v71.547c0 20.46-.62 27.832-9.55 27.832v1.039h28.039v-1.04c-8.934 0-9.555-7.37-9.555-27.831v-46.106c0-20.457.621-27.832 9.555-27.832v-1.039h-18.278l-31.156 83.703-39.875-83.703zm191.999 105.926c25.859 0 46.214-22.848 46.214-54 0-31.156-20.355-54-46.214-54-25.856 0-46.211 22.844-46.211 54 0 31.152 20.355 54 46.21 54zm0-106.754c21.496 0 36.867 22.43 36.867 52.754 0 30.32-16.824 52.754-36.867 52.754-20.043 0-36.864-22.434-36.864-52.754 0-30.324 15.368-52.754 36.864-52.754zm0 0"/><g clip-path="url(#a)"><path fill="#fff" d="M64.777 169.016h247.98v28.879H64.778zm0 0"/></g><path d="M77.372 177.268v11.47h-1.156v-9.173l-4.5 7.72h-.578l-4.5-7.673v9.125h-1.172v-11.469h1l4.984 8.5 4.922-8.5zm16.156 8.407h-6.39l-1.376 3.062h-1.265l5.234-11.469h1.203l5.235 11.47h-1.266zm-.453-.985l-2.75-6.156-2.75 6.156zm18.291-1.687h1.171v4.375a5.745 5.745 0 01-1.906 1.078c-.73.25-1.5.375-2.312.375-1.149 0-2.18-.25-3.094-.75a5.611 5.611 0 01-2.172-2.078c-.523-.895-.781-1.895-.781-3 0-1.102.258-2.098.781-2.985a5.639 5.639 0 012.172-2.078c.914-.508 1.953-.765 3.11-.765.874 0 1.675.14 2.406.422a4.84 4.84 0 011.859 1.234l-.75.766c-.906-.895-2.063-1.344-3.469-1.344-.93 0-1.765.21-2.515.625a4.5 4.5 0 00-1.75 1.703c-.43.719-.641 1.527-.641 2.422 0 .898.21 1.703.64 2.422a4.61 4.61 0 001.75 1.703c.739.418 1.57.625 2.5.625 1.188 0 2.188-.29 3-.875zm9.801-5.735h4.672c1.207 0 2.273.247 3.203.735.937.492 1.66 1.168 2.172 2.031.508.867.765 1.856.765 2.969 0 1.117-.257 2.11-.765 2.984-.512.867-1.235 1.543-2.172 2.031-.93.48-1.996.72-3.203.72h-4.672zm4.61 10.422c1 0 1.874-.195 2.624-.593.758-.407 1.348-.957 1.766-1.657.414-.707.625-1.52.625-2.437 0-.914-.211-1.723-.625-2.422a4.355 4.355 0 00-1.766-1.656c-.75-.407-1.625-.61-2.625-.61h-3.39v9.375zm21.34-2.015h-6.39l-1.376 3.062h-1.265l5.234-11.469h1.203l5.235 11.47h-1.266zm-.453-.985l-2.75-6.156-2.75 6.156zm10.213-7.422h1.218v10.422h6.422v1.047h-7.64zm22.976 10.422v1.047h-8.11v-11.469h7.876v1.047h-6.656v4.078h5.922v1.032h-5.922v4.265zm17.662-10.422v11.47h-1l-7.375-9.298v9.297h-1.22v-11.469h1l7.392 9.313v-9.313zm16.143 8.407h-6.39l-1.375 3.062h-1.266l5.234-11.469h1.203l5.235 11.47h-1.266zm-.453-.985l-2.75-6.156-2.75 6.156zm24.743 4.14c-1.137 0-2.168-.25-3.094-.75a5.583 5.583 0 01-2.156-2.093c-.524-.883-.782-1.879-.782-2.984 0-1.102.258-2.094.782-2.969a5.639 5.639 0 012.156-2.094c.926-.508 1.957-.765 3.094-.765 1.133 0 2.156.257 3.062.765a5.57 5.57 0 012.156 2.078c.532.887.797 1.883.797 2.985 0 1.105-.265 2.105-.797 3a5.543 5.543 0 01-2.156 2.078c-.906.5-1.93.75-3.062.75zm0-1.077c.906 0 1.722-.203 2.453-.61a4.293 4.293 0 001.719-1.703c.414-.726.625-1.539.625-2.437 0-.895-.211-1.703-.625-2.422a4.318 4.318 0 00-1.72-1.703c-.73-.414-1.546-.625-2.452-.625-.907 0-1.73.21-2.469.625a4.539 4.539 0 00-1.734 1.703c-.418.719-.625 1.527-.625 2.422 0 .898.207 1.71.625 2.437a4.511 4.511 0 001.734 1.703c.738.407 1.562.61 2.469.61zm13.944-10.485h1.219v10.422h6.422v1.047h-7.641zm22.977 10.422v1.047h-8.11v-11.469h7.875v1.047h-6.656v4.078h5.922v1.032h-5.922v4.265zm13.051 1.14c-1.136 0-2.163-.25-3.078-.75a5.528 5.528 0 01-2.14-2.077c-.524-.895-.781-1.895-.781-3 0-1.102.257-2.098.78-2.985a5.518 5.518 0 012.157-2.078c.914-.508 1.941-.765 3.078-.765.852 0 1.64.148 2.36.437a4.888 4.888 0 011.828 1.235l-.766.765c-.898-.906-2.027-1.36-3.39-1.36-.907 0-1.731.212-2.47.626a4.638 4.638 0 00-1.75 1.703c-.417.719-.624 1.527-.624 2.422 0 .898.207 1.703.625 2.422a4.61 4.61 0 001.75 1.703c.738.418 1.562.625 2.468.625 1.375 0 2.504-.457 3.391-1.375l.766.765a4.86 4.86 0 01-1.844 1.266 6.43 6.43 0 01-2.36.422zm21.605-11.562v11.47h-1.203v-5.298h-7.172v5.297h-1.218v-11.469h1.218v5.11h7.172v-5.11zm0 0"/></svg>