<svg xmlns="http://www.w3.org/2000/svg" width="500" viewBox="0 0 375 375" height="500" version="1.0"><defs><clipPath id="fd18d245d8"><path d="M11.043 257H29v72H11.043Zm0 0"/></clipPath></defs><path fill="#ffe9b5" d="M358.23 83.48a2025.745 2025.745 0 0 0-77.425-8.578 2677.989 2677.989 0 0 0-38.746-3.21c-6.278-.477-12.54-.895-18.805-1.344-7.133-.512-14.121-2.13-21.203-2.38-8.5-.238-7.656 12.29.449 12.977 6.195.54 12.504-.222 18.781.11 6.278.332 12.54.773 18.805 1.187 12.914.89 25.828 1.88 38.734 2.965a3468.463 3468.463 0 0 1 77.258 7.363c5.887.621 8.215-8.328 2.176-9.148ZM266.71 136.21c-25.233-8.124-51.23-13.597-76.663-21.034-7.906-2.309-11.067 10.789-2.973 12.469 25.887 5.39 51.395 12.742 77.461 17.5.293.074.59.113.89.128a4.608 4.608 0 0 0 3.305-1.207 4.87 4.87 0 0 0 .598-.671 4.693 4.693 0 0 0 .758-1.629 4.572 4.572 0 0 0 .074-1.793 4.455 4.455 0 0 0-.223-.871 4.713 4.713 0 0 0-.39-.813 4.623 4.623 0 0 0-2.836-2.078ZM296.84 240.73c-22.582-9.984-44.633-21.093-66.29-32.921-10.59-5.782-21.097-11.684-31.6-17.598-11.485-6.457-22.919-14.18-34.887-19.617-7.133-3.274-12.243 6.414-5.754 10.707 10.699 7.043 22.87 12.457 34.113 18.574 11.246 6.113 22.5 12.3 33.816 18.32 21.883 11.637 43.977 22.606 67.274 31.301 4.98 1.856 8.215-6.601 3.328-8.754ZM172.18 260.55c-13.633-16.48-29.082-31.648-44.11-46.85-5.086-5.141-13.074 3.327-7.664 8.23 15.559 14.277 29.88 29.613 44.965 44.32 3.566 3.438 10.078-1.668 6.809-5.64ZM115.45 366.77c-10.997-40.332-21.477-80.797-30.665-121.579-1.652-7.316-12.98-3.832-11.187 3.567 9.902 40.523 20.765 80.797 33.46 120.64 1.723 5.368 9.887 2.832 8.391-2.628Zm0 0"/><g clip-path="url('#fd18d245d8')"><path fill="#ffe9b5" d="M28.836 322.902a407.799 407.799 0 0 1-5.79-60.246c-.163-7.484-11.98-7.14-11.585.403a368.068 368.068 0 0 0 8.723 62.57c1.32 5.805 9.652 2.89 8.675-2.727Zm0 0"/></g><path fill="#ffe9b5" d="M273.734.473c-11.257.488-22.582 2.902-33.683 4.605L223.8 7.551c-5.528.847-12.528 3.035-18.09 2.383-11.754-1.371-7.797 15.832.43 12.109 5.714-2.594 13.074-2.855 19.195-3.844l16.246-2.605c11.211-1.797 22.762-2.95 33.723-5.95 5.132-1.402 3.695-9.41-1.57-9.183Zm0 0"/></svg>