<svg xmlns="http://www.w3.org/2000/svg" xmlns:xlink="http://www.w3.org/1999/xlink" width="500" zoomAndPan="magnify" viewBox="0 0 375 374.999991" height="500" preserveAspectRatio="xMidYMid meet" version="1.0"><defs>
<g/><clipPath id="49504c9eb1"><path d="M 64.777344 169.015625 L 312.757812 169.015625 L 312.757812 197.894531 L 64.777344 197.894531 Z M 64.777344 169.015625 " clip-rule="nonzero"/></clipPath></defs><path stroke-linecap="butt" transform="matrix(0.00205141, -0.845586, 0.845586, 0.00205141, 187.498483, 267.05169)" fill="none" stroke-linejoin="miter" d="M 0.00228996 0.500704 L 206.095585 0.499631 " stroke="#000000" stroke-width="1" stroke-opacity="1" stroke-miterlimit="4"/><g fill="#000000" fill-opacity="1"><g transform="translate(63.720208, 232.760899)"><g><path d="M 3.117188 -103.847656 L 3.117188 -102.808594 C 12.046875 -102.808594 12.667969 -95.433594 12.667969 -74.976562 L 12.667969 -28.871094 C 12.667969 -8.410156 12.046875 -1.039062 3.117188 -1.039062 L 3.117188 0 L 31.152344 0 L 31.152344 -1.039062 C 22.222656 -1.039062 13.707031 -8.515625 13.707031 -38.734375 L 13.707031 -51.921875 L 13.8125 -96.472656 C 29.597656 -62.621094 38.941406 -42.472656 55.246094 -7.582031 L 56.179688 -7.582031 C 68.953125 -41.851562 79.441406 -70.40625 90.65625 -100.417969 L 90.65625 -28.871094 C 90.65625 -8.410156 90.035156 -1.039062 81.105469 -1.039062 L 81.105469 0 L 109.144531 0 L 109.144531 -1.039062 C 100.210938 -1.039062 99.589844 -8.410156 99.589844 -28.871094 L 99.589844 -74.976562 C 99.589844 -95.433594 100.210938 -102.808594 109.144531 -102.808594 L 109.144531 -103.847656 L 90.867188 -103.847656 L 59.710938 -20.144531 L 19.835938 -103.847656 Z M 3.117188 -103.847656 "/></g></g></g><g fill="#000000" fill-opacity="1"><g transform="translate(206.3942, 232.760899)"><g><path d="M 52.441406 2.078125 C 78.300781 2.078125 98.65625 -20.769531 98.65625 -51.921875 C 98.65625 -83.078125 78.300781 -105.921875 52.441406 -105.921875 C 26.585938 -105.921875 6.230469 -83.078125 6.230469 -51.921875 C 6.230469 -20.769531 26.585938 2.078125 52.441406 2.078125 Z M 52.441406 -104.675781 C 73.9375 -104.675781 89.308594 -82.246094 89.308594 -51.921875 C 89.308594 -21.601562 72.484375 0.832031 52.441406 0.832031 C 32.398438 0.832031 15.578125 -21.601562 15.578125 -51.921875 C 15.578125 -82.246094 30.945312 -104.675781 52.441406 -104.675781 Z M 52.441406 -104.675781 "/></g></g></g><g clip-path="url(#49504c9eb1)"><path fill="#ffffff" d="M 64.777344 169.015625 L 312.757812 169.015625 L 312.757812 197.894531 L 64.777344 197.894531 Z M 64.777344 169.015625 " fill-opacity="1" fill-rule="nonzero"/></g><g fill="#000000" fill-opacity="1"><g transform="translate(63.606649, 188.737177)"><g><path d="M 13.765625 -11.46875 L 13.765625 0 L 12.609375 0 L 12.609375 -9.171875 L 8.109375 -1.453125 L 7.53125 -1.453125 L 3.03125 -9.125 L 3.03125 0 L 1.859375 0 L 1.859375 -11.46875 L 2.859375 -11.46875 L 7.84375 -2.96875 L 12.765625 -11.46875 Z M 13.765625 -11.46875 "/></g></g></g><g fill="#000000" fill-opacity="1"><g transform="translate(84.465403, 188.737177)"><g><path d="M 9.0625 -3.0625 L 2.671875 -3.0625 L 1.296875 0 L 0.03125 0 L 5.265625 -11.46875 L 6.46875 -11.46875 L 11.703125 0 L 10.4375 0 Z M 8.609375 -4.046875 L 5.859375 -10.203125 L 3.109375 -4.046875 Z M 8.609375 -4.046875 "/></g></g></g><g fill="#000000" fill-opacity="1"><g transform="translate(101.4281, 188.737177)"><g><path d="M 9.9375 -5.734375 L 11.109375 -5.734375 L 11.109375 -1.359375 C 10.566406 -0.890625 9.929688 -0.53125 9.203125 -0.28125 C 8.472656 -0.03125 7.703125 0.09375 6.890625 0.09375 C 5.742188 0.09375 4.710938 -0.15625 3.796875 -0.65625 C 2.878906 -1.15625 2.15625 -1.847656 1.625 -2.734375 C 1.101562 -3.628906 0.84375 -4.628906 0.84375 -5.734375 C 0.84375 -6.835938 1.101562 -7.832031 1.625 -8.71875 C 2.15625 -9.601562 2.878906 -10.296875 3.796875 -10.796875 C 4.710938 -11.304688 5.75 -11.5625 6.90625 -11.5625 C 7.78125 -11.5625 8.582031 -11.421875 9.3125 -11.140625 C 10.050781 -10.859375 10.671875 -10.445312 11.171875 -9.90625 L 10.421875 -9.140625 C 9.515625 -10.035156 8.359375 -10.484375 6.953125 -10.484375 C 6.023438 -10.484375 5.1875 -10.273438 4.4375 -9.859375 C 3.695312 -9.453125 3.113281 -8.882812 2.6875 -8.15625 C 2.257812 -7.4375 2.046875 -6.628906 2.046875 -5.734375 C 2.046875 -4.835938 2.257812 -4.03125 2.6875 -3.3125 C 3.113281 -2.59375 3.695312 -2.023438 4.4375 -1.609375 C 5.175781 -1.191406 6.007812 -0.984375 6.9375 -0.984375 C 8.125 -0.984375 9.125 -1.273438 9.9375 -1.859375 Z M 9.9375 -5.734375 "/></g></g></g><g fill="#000000" fill-opacity="1"><g transform="translate(119.307517, 188.737177)"><g><path d="M 1.859375 -11.46875 L 6.53125 -11.46875 C 7.738281 -11.46875 8.804688 -11.222656 9.734375 -10.734375 C 10.671875 -10.242188 11.394531 -9.566406 11.90625 -8.703125 C 12.414062 -7.835938 12.671875 -6.847656 12.671875 -5.734375 C 12.671875 -4.617188 12.414062 -3.625 11.90625 -2.75 C 11.394531 -1.882812 10.671875 -1.207031 9.734375 -0.71875 C 8.804688 -0.238281 7.738281 0 6.53125 0 L 1.859375 0 Z M 6.46875 -1.046875 C 7.46875 -1.046875 8.34375 -1.242188 9.09375 -1.640625 C 9.851562 -2.046875 10.441406 -2.597656 10.859375 -3.296875 C 11.273438 -4.003906 11.484375 -4.816406 11.484375 -5.734375 C 11.484375 -6.648438 11.273438 -7.457031 10.859375 -8.15625 C 10.441406 -8.863281 9.851562 -9.414062 9.09375 -9.8125 C 8.34375 -10.21875 7.46875 -10.421875 6.46875 -10.421875 L 3.078125 -10.421875 L 3.078125 -1.046875 Z M 6.46875 -1.046875 "/></g></g></g><g fill="#000000" fill-opacity="1"><g transform="translate(138.054547, 188.737177)"><g><path d="M 9.0625 -3.0625 L 2.671875 -3.0625 L 1.296875 0 L 0.03125 0 L 5.265625 -11.46875 L 6.46875 -11.46875 L 11.703125 0 L 10.4375 0 Z M 8.609375 -4.046875 L 5.859375 -10.203125 L 3.109375 -4.046875 Z M 8.609375 -4.046875 "/></g></g></g><g fill="#000000" fill-opacity="1"><g transform="translate(155.017243, 188.737177)"><g><path d="M 1.859375 -11.46875 L 3.078125 -11.46875 L 3.078125 -1.046875 L 9.5 -1.046875 L 9.5 0 L 1.859375 0 Z M 1.859375 -11.46875 "/></g></g></g><g fill="#000000" fill-opacity="1"><g transform="translate(169.884574, 188.737177)"><g><path d="M 9.96875 -1.046875 L 9.96875 0 L 1.859375 0 L 1.859375 -11.46875 L 9.734375 -11.46875 L 9.734375 -10.421875 L 3.078125 -10.421875 L 3.078125 -6.34375 L 9 -6.34375 L 9 -5.3125 L 3.078125 -5.3125 L 3.078125 -1.046875 Z M 9.96875 -1.046875 "/></g></g></g><g fill="#000000" fill-opacity="1"><g transform="translate(186.061505, 188.737177)"><g><path d="M 11.453125 -11.46875 L 11.453125 0 L 10.453125 0 L 3.078125 -9.296875 L 3.078125 0 L 1.859375 0 L 1.859375 -11.46875 L 2.859375 -11.46875 L 10.25 -2.15625 L 10.25 -11.46875 Z M 11.453125 -11.46875 "/></g></g></g><g fill="#000000" fill-opacity="1"><g transform="translate(204.595725, 188.737177)"><g><path d="M 9.0625 -3.0625 L 2.671875 -3.0625 L 1.296875 0 L 0.03125 0 L 5.265625 -11.46875 L 6.46875 -11.46875 L 11.703125 0 L 10.4375 0 Z M 8.609375 -4.046875 L 5.859375 -10.203125 L 3.109375 -4.046875 Z M 8.609375 -4.046875 "/></g></g></g><g fill="#000000" fill-opacity="1"><g transform="translate(221.558428, 188.737177)"><g/></g></g><g fill="#000000" fill-opacity="1"><g transform="translate(231.07274, 188.737177)"><g><path d="M 6.875 0.09375 C 5.738281 0.09375 4.707031 -0.15625 3.78125 -0.65625 C 2.863281 -1.164062 2.144531 -1.863281 1.625 -2.75 C 1.101562 -3.632812 0.84375 -4.628906 0.84375 -5.734375 C 0.84375 -6.835938 1.101562 -7.828125 1.625 -8.703125 C 2.144531 -9.585938 2.863281 -10.285156 3.78125 -10.796875 C 4.707031 -11.304688 5.738281 -11.5625 6.875 -11.5625 C 8.007812 -11.5625 9.03125 -11.304688 9.9375 -10.796875 C 10.851562 -10.296875 11.570312 -9.601562 12.09375 -8.71875 C 12.625 -7.832031 12.890625 -6.835938 12.890625 -5.734375 C 12.890625 -4.628906 12.625 -3.628906 12.09375 -2.734375 C 11.570312 -1.847656 10.851562 -1.15625 9.9375 -0.65625 C 9.03125 -0.15625 8.007812 0.09375 6.875 0.09375 Z M 6.875 -0.984375 C 7.78125 -0.984375 8.597656 -1.1875 9.328125 -1.59375 C 10.066406 -2 10.640625 -2.566406 11.046875 -3.296875 C 11.460938 -4.023438 11.671875 -4.835938 11.671875 -5.734375 C 11.671875 -6.628906 11.460938 -7.4375 11.046875 -8.15625 C 10.640625 -8.882812 10.066406 -9.453125 9.328125 -9.859375 C 8.597656 -10.273438 7.78125 -10.484375 6.875 -10.484375 C 5.96875 -10.484375 5.144531 -10.273438 4.40625 -9.859375 C 3.675781 -9.453125 3.097656 -8.882812 2.671875 -8.15625 C 2.253906 -7.4375 2.046875 -6.628906 2.046875 -5.734375 C 2.046875 -4.835938 2.253906 -4.023438 2.671875 -3.296875 C 3.097656 -2.566406 3.675781 -2 4.40625 -1.59375 C 5.144531 -1.1875 5.96875 -0.984375 6.875 -0.984375 Z M 6.875 -0.984375 "/></g></g></g><g fill="#000000" fill-opacity="1"><g transform="translate(250.032567, 188.737177)"><g><path d="M 1.859375 -11.46875 L 3.078125 -11.46875 L 3.078125 -1.046875 L 9.5 -1.046875 L 9.5 0 L 1.859375 0 Z M 1.859375 -11.46875 "/></g></g></g><g fill="#000000" fill-opacity="1"><g transform="translate(264.899905, 188.737177)"><g><path d="M 9.96875 -1.046875 L 9.96875 0 L 1.859375 0 L 1.859375 -11.46875 L 9.734375 -11.46875 L 9.734375 -10.421875 L 3.078125 -10.421875 L 3.078125 -6.34375 L 9 -6.34375 L 9 -5.3125 L 3.078125 -5.3125 L 3.078125 -1.046875 Z M 9.96875 -1.046875 "/></g></g></g><g fill="#000000" fill-opacity="1"><g transform="translate(281.076835, 188.737177)"><g><path d="M 6.84375 0.09375 C 5.707031 0.09375 4.679688 -0.15625 3.765625 -0.65625 C 2.859375 -1.15625 2.144531 -1.847656 1.625 -2.734375 C 1.101562 -3.628906 0.84375 -4.628906 0.84375 -5.734375 C 0.84375 -6.835938 1.101562 -7.832031 1.625 -8.71875 C 2.144531 -9.601562 2.863281 -10.296875 3.78125 -10.796875 C 4.695312 -11.304688 5.722656 -11.5625 6.859375 -11.5625 C 7.710938 -11.5625 8.5 -11.414062 9.21875 -11.125 C 9.9375 -10.84375 10.546875 -10.429688 11.046875 -9.890625 L 10.28125 -9.125 C 9.382812 -10.03125 8.253906 -10.484375 6.890625 -10.484375 C 5.984375 -10.484375 5.160156 -10.273438 4.421875 -9.859375 C 3.679688 -9.441406 3.097656 -8.875 2.671875 -8.15625 C 2.253906 -7.4375 2.046875 -6.628906 2.046875 -5.734375 C 2.046875 -4.835938 2.253906 -4.03125 2.671875 -3.3125 C 3.097656 -2.59375 3.679688 -2.023438 4.421875 -1.609375 C 5.160156 -1.191406 5.984375 -0.984375 6.890625 -0.984375 C 8.265625 -0.984375 9.394531 -1.441406 10.28125 -2.359375 L 11.046875 -1.59375 C 10.546875 -1.039062 9.929688 -0.617188 9.203125 -0.328125 C 8.484375 -0.046875 7.695312 0.09375 6.84375 0.09375 Z M 6.84375 0.09375 "/></g></g></g><g fill="#000000" fill-opacity="1"><g transform="translate(298.072259, 188.737177)"><g><path d="M 11.453125 -11.46875 L 11.453125 0 L 10.25 0 L 10.25 -5.296875 L 3.078125 -5.296875 L 3.078125 0 L 1.859375 0 L 1.859375 -11.46875 L 3.078125 -11.46875 L 3.078125 -6.359375 L 10.25 -6.359375 L 10.25 -11.46875 Z M 11.453125 -11.46875 "/></g></g></g>
</svg>