<svg xmlns="http://www.w3.org/2000/svg" xmlns:xlink="http://www.w3.org/1999/xlink" width="500" zoomAndPan="magnify" viewBox="0 0 375 374.999991" height="500" preserveAspectRatio="xMidYMid meet" version="1.0"><defs><clipPath id="fd18d245d8"><path d="M 11.042969 257 L 29 257 L 29 329 L 11.042969 329 Z M 11.042969 257 " clip-rule="nonzero"/></clipPath></defs><path fill="#ffe9b5" d="M 358.230469 83.480469 C 332.476562 80.125 306.671875 77.265625 280.804688 74.902344 C 267.898438 73.738281 254.980469 72.667969 242.058594 71.691406 C 235.78125 71.214844 229.519531 70.796875 223.253906 70.347656 C 216.121094 69.835938 209.132812 68.21875 202.050781 67.96875 C 193.550781 67.730469 194.394531 80.257812 202.5 80.945312 C 208.695312 81.484375 215.003906 80.722656 221.28125 81.054688 C 227.558594 81.386719 233.820312 81.828125 240.085938 82.242188 C 253 83.132812 265.914062 84.121094 278.820312 85.207031 C 304.589844 87.371094 330.34375 89.828125 356.078125 92.570312 C 361.964844 93.191406 364.292969 84.242188 358.253906 83.421875 Z M 358.230469 83.480469 " fill-opacity="1" fill-rule="nonzero"/><path fill="#ffe9b5" d="M 266.710938 136.210938 C 241.476562 128.085938 215.480469 122.613281 190.046875 115.175781 C 182.140625 112.867188 178.980469 125.964844 187.074219 127.644531 C 212.960938 133.035156 238.46875 140.386719 264.535156 145.144531 C 264.828125 145.21875 265.125 145.257812 265.425781 145.273438 C 265.726562 145.285156 266.027344 145.269531 266.324219 145.222656 C 266.625 145.175781 266.914062 145.101562 267.195312 144.996094 C 267.480469 144.894531 267.75 144.761719 268.007812 144.605469 C 268.265625 144.449219 268.507812 144.269531 268.730469 144.066406 C 268.949219 143.859375 269.152344 143.636719 269.328125 143.394531 C 269.507812 143.148438 269.660156 142.890625 269.785156 142.617188 C 269.914062 142.34375 270.011719 142.058594 270.085938 141.765625 C 270.15625 141.472656 270.199219 141.175781 270.210938 140.875 C 270.222656 140.574219 270.207031 140.273438 270.160156 139.972656 C 270.117188 139.675781 270.039062 139.382812 269.9375 139.101562 C 269.832031 138.816406 269.703125 138.546875 269.546875 138.289062 C 269.390625 138.03125 269.210938 137.789062 269.003906 137.566406 C 268.800781 137.347656 268.578125 137.144531 268.335938 136.96875 C 268.089844 136.789062 267.832031 136.636719 267.558594 136.507812 C 267.285156 136.382812 267.003906 136.28125 266.710938 136.210938 Z M 266.710938 136.210938 " fill-opacity="1" fill-rule="nonzero"/><path fill="#ffe9b5" d="M 296.839844 240.730469 C 274.257812 230.746094 252.207031 219.636719 230.550781 207.808594 C 219.960938 202.027344 209.453125 196.125 198.949219 190.210938 C 187.464844 183.753906 176.03125 176.03125 164.0625 170.59375 C 156.929688 167.320312 151.820312 177.007812 158.308594 181.300781 C 169.007812 188.34375 181.179688 193.757812 192.421875 199.875 C 203.667969 205.988281 214.921875 212.175781 226.238281 218.195312 C 248.121094 229.832031 270.214844 240.800781 293.511719 249.496094 C 298.492188 251.351562 301.726562 242.894531 296.839844 240.742188 Z M 296.839844 240.730469 " fill-opacity="1" fill-rule="nonzero"/><path fill="#ffe9b5" d="M 172.179688 260.550781 C 158.546875 244.070312 143.097656 228.902344 128.070312 213.699219 C 122.984375 208.558594 114.996094 217.027344 120.40625 221.929688 C 135.964844 236.207031 150.285156 251.542969 165.371094 266.25 C 168.9375 269.6875 175.449219 264.582031 172.179688 260.609375 Z M 172.179688 260.550781 " fill-opacity="1" fill-rule="nonzero"/><path fill="#ffe9b5" d="M 115.449219 366.769531 C 104.453125 326.4375 93.972656 285.972656 84.785156 245.191406 C 83.132812 237.875 71.804688 241.359375 73.597656 248.757812 C 83.5 289.28125 94.363281 329.554688 107.058594 369.398438 C 108.78125 374.765625 116.945312 372.230469 115.449219 366.769531 Z M 115.449219 366.769531 " fill-opacity="1" fill-rule="nonzero"/><g clip-path="url(#fd18d245d8)"><path fill="#ffe9b5" d="M 28.835938 322.902344 C 25.414062 302.964844 23.484375 282.882812 23.046875 262.65625 C 22.882812 255.171875 11.066406 255.515625 11.460938 263.058594 C 12.574219 284.167969 15.484375 305.023438 20.183594 325.628906 C 21.503906 331.433594 29.835938 328.519531 28.859375 322.902344 Z M 28.835938 322.902344 " fill-opacity="1" fill-rule="nonzero"/></g><path fill="#ffe9b5" d="M 273.734375 0.472656 C 262.476562 0.960938 251.152344 3.375 240.050781 5.078125 L 223.800781 7.550781 C 218.273438 8.398438 211.273438 10.585938 205.710938 9.933594 C 193.957031 8.5625 197.914062 25.765625 206.140625 22.042969 C 211.855469 19.449219 219.214844 19.1875 225.335938 18.199219 L 241.582031 15.59375 C 252.792969 13.796875 264.34375 12.644531 275.304688 9.644531 C 280.4375 8.242188 279 0.234375 273.734375 0.460938 Z M 273.734375 0.472656 " fill-opacity="1" fill-rule="nonzero"/></svg>